<?xml version="1.0" standalone="no"?>
<!DOCTYPE svg PUBLIC "-//W3C//DTD SVG 20010904//EN"
 "http://www.w3.org/TR/2001/REC-SVG-20010904/DTD/svg10.dtd">
<svg version="1.0" xmlns="http://www.w3.org/2000/svg"
 width="400.000000pt" height="400.000000pt" viewBox="0 0 400.000000 400.000000"
 preserveAspectRatio="xMidYMid meet">
<metadata>
Created by potrace 1.11, written by Peter Selinger 2001-2013
</metadata>
<g transform="translate(0.000000,400.000000) scale(0.100000,-0.100000)"
fill="#000000" stroke="none">
<path d="M272 2249 l3 -1490 185 -2 185 -2 3 -77 3 -78 -191 0 -190 0 0 -170
0 -170 105 0 105 0 0 65 0 65 93 0 c88 0 95 -2 118 -26 71 -76 179 -80 257 -9
l38 33 334 4 c364 5 379 7 500 68 61 31 139 107 159 158 12 29 17 32 60 32 25
1 57 7 71 15 20 12 97 14 423 15 l397 0 0 -85 c0 -74 2 -85 18 -87 9 -1 56 -2
104 -2 l88 -1 0 88 0 87 143 0 c159 0 242 15 319 57 236 129 290 483 103 691
-50 55 -139 107 -211 121 -27 6 -112 12 -189 15 -184 6 -245 28 -279 100 -20
43 -21 145 -1 193 20 48 41 70 90 96 35 18 62 22 218 25 178 4 178 4 217 -22
97 -64 215 -33 261 68 16 36 19 69 19 270 0 214 -1 233 -21 274 -23 47 -74 86
-126 97 -38 8 -102 -8 -134 -34 -22 -17 -48 -19 -259 -24 -176 -3 -250 -8
-295 -21 -218 -60 -378 -189 -480 -388 -25 -48 -50 -88 -54 -88 -5 0 -39 14
-75 31 -37 17 -69 30 -71 28 -4 -5 -85 -180 -85 -185 0 -2 30 -17 67 -34 37
-17 68 -32 70 -34 3 -3 -54 -124 -249 -526 -97 -201 -99 -204 -114 -180 -8 14
-34 59 -57 100 -26 46 -55 83 -77 98 -19 13 -39 33 -43 45 -4 12 -7 452 -6
977 l2 955 -22 64 c-53 153 -167 251 -328 281 -35 6 -273 10 -630 10 l-573 0
2 -1491z m1209 1266 c99 -35 139 -113 139 -267 l0 -88 -90 0 -90 0 0 -105 0
-105 90 0 90 0 0 -567 c0 -311 -2 -564 -4 -562 -1 2 -92 180 -201 396 l-198
392 -171 -86 c-94 -47 -173 -87 -175 -89 -5 -5 67 -161 81 -179 5 -5 40 7 88
30 50 24 83 35 89 30 5 -6 118 -228 251 -494 l242 -484 -4 -111 c-3 -89 -8
-119 -26 -153 -51 -97 -106 -113 -392 -113 l-217 0 -24 26 c-30 33 -94 64
-134 64 -40 0 -104 -31 -134 -64 -23 -24 -30 -26 -118 -26 l-93 0 0 330 0 330
80 0 80 0 0 105 0 105 -80 0 -80 0 0 850 0 850 479 0 c406 0 485 -2 522 -15z
m2238 -920 c54 -28 61 -60 61 -300 0 -177 -3 -223 -16 -250 -39 -83 -148 -95
-209 -24 l-25 31 0 245 0 245 34 34 c29 29 41 34 80 34 26 0 60 -7 75 -15z
m-249 -299 l0 -103 -162 -6 c-109 -3 -180 -10 -214 -21 -196 -62 -306 -226
-291 -436 13 -194 132 -326 325 -362 l62 -12 0 -88 0 -88 105 0 105 0 0 86 0
87 40 -6 c57 -7 106 -42 138 -95 23 -41 27 -58 27 -127 0 -67 -4 -87 -25 -125
-28 -49 -73 -84 -129 -100 -22 -6 -272 -10 -657 -10 l-620 0 -16 33 -15 32
117 245 c64 135 166 346 227 470 255 522 243 500 313 570 74 74 162 123 260
144 41 9 130 15 238 15 l172 1 0 -104z m-1644 -922 c40 -19 39 -17 190 -294
96 -177 118 -224 122 -267 4 -48 2 -55 -26 -83 -22 -22 -40 -30 -65 -30 -68 0
-90 28 -233 290 -111 205 -133 252 -134 288 0 53 12 77 48 96 35 20 56 20 98
0z m-951 -388 c19 -8 44 -30 55 -48 18 -31 20 -50 20 -261 0 -247 -4 -267 -55
-301 -34 -22 -93 -23 -133 -2 -58 30 -62 50 -62 304 0 222 1 230 23 263 13 19
38 39 57 46 46 16 54 16 95 -1z m933 -89 c17 -35 32 -68 32 -75 0 -7 -16 -44
-35 -82 -30 -60 -42 -73 -83 -94 -80 -41 -145 -47 -442 -44 l-275 3 0 75 0 75
250 5 c223 5 256 8 301 26 74 30 138 78 175 129 18 25 35 45 38 45 3 0 21 -28
39 -63z"/>
</g>
</svg>
